<svg width="20" height="18" viewBox="0 0 20 18" fill="none" xmlns="http://www.w3.org/2000/svg">
<path d="M2.66602 17.2654C2.66602 17.6712 3.14358 18.0001 3.73268 18.0001H8.26602C8.85512 18.0001 9.33268 17.6712 9.33268 17.2654C9.33268 16.251 8.13878 15.4287 6.66602 15.4287H5.33268C3.85992 15.4287 2.66602 16.251 2.66602 17.2654Z" fill="#A5A7A9"/>
<path d="M10.666 17.2654C10.666 17.6712 11.1436 18.0001 11.7327 18.0001H16.266C16.8551 18.0001 17.3327 17.6712 17.3327 17.2654C17.3327 16.251 16.1388 15.4287 14.666 15.4287H13.3327C11.8599 15.4287 10.666 16.251 10.666 17.2654Z" fill="#A5A7A9"/>
<path d="M0 14.4597C-5.06007e-07 15.1618 0.798033 15.6303 1.50383 15.3426L2.70383 14.8533C3.0869 14.6971 3.33333 14.3515 3.33333 13.9704L3.33333 9.21945C3.33333 8.6674 2.68598 8.3137 2.14828 8.57196C0.826644 9.20675 2.88786e-06 10.4525 1.90996e-06 11.8094L0 14.4597Z" fill="#A5A7A9"/>
<path d="M19.9994 14.4597C19.9994 15.1618 19.2013 15.6303 18.4955 15.3426L17.2955 14.8533C16.9124 14.6971 16.666 14.3515 16.666 13.9704L16.666 9.21945C16.666 8.6674 17.3134 8.3137 17.8511 8.57196C19.1727 9.20675 19.9993 10.4525 19.9993 11.8094L19.9994 14.4597Z" fill="#A5A7A9"/>
<path d="M2 2.05714C2 0.921014 2.95513 0 4.13333 0H15.8667C17.0449 0 18 0.921014 18 2.05714V14.6571C18 15.7933 17.0449 16.7143 15.8667 16.7143H4.13333C2.95513 16.7143 2 15.7933 2 14.6571V2.05714Z" fill="#A5A7A9"/>
<path fill-rule="evenodd" clip-rule="evenodd" d="M5.73673 2.24375C4.67007 1.64718 3.33398 2.38932 3.33398 3.57837V9.38564H10.0007H16.6673V3.57837C16.6673 2.38932 15.3312 1.64718 14.2646 2.24375L10.0007 4.07564L5.73673 2.24375Z" fill="#1D2327"/>
<path d="M3.33398 8.88908C3.33398 8.31122 3.81155 7.84277 4.40065 7.84277H15.6007C16.1898 7.84277 16.6673 8.31122 16.6673 8.88908V14.3822C16.6673 14.96 16.1898 15.4285 15.6007 15.4285H4.40065C3.81155 15.4285 3.33398 14.96 3.33398 14.3822V8.88908Z" fill="#1D2327"/>
<path d="M3.33398 11.6356C3.33398 9.54089 5.0321 7.84277 7.12684 7.84277H10.0007V15.4285H7.12684C5.0321 15.4285 3.33398 13.7304 3.33398 11.6356V11.6356Z" fill="#1D2327"/>
<path d="M16.6667 8.87134C16.6667 8.30328 16.1891 7.84277 15.6 7.84277H10V11.6999L16.6667 8.87134Z" fill="#A5A7A9"/>
<path d="M3.33398 8.87134C3.33398 8.30328 3.81155 7.84277 4.40065 7.84277H10.0007V11.6999L3.33398 8.87134Z" fill="#A5A7A9"/>
<path d="M9.99999 7.09593L11.8667 6.30009L9.99999 5.52008L8.13332 6.30009L9.99999 7.09593Z" fill="#A5A7A9"/>
<path d="M10.0008 7.09606L11.8675 6.30022L10.0008 5.52021L10.0008 7.09606Z" fill="#A5A7A9"/>
<ellipse cx="13.9992" cy="4.62836" rx="0.800001" ry="0.771428" fill="#A5A7A9"/>
<ellipse cx="5.99922" cy="4.62836" rx="0.8" ry="0.771428" fill="#A5A7A9"/>
</svg>
