<svg width="163" height="39" viewBox="0 0 163 39" fill="none" xmlns="http://www.w3.org/2000/svg">
<path d="M5.16919 34.5306C5.16919 35.3422 6.09493 36 7.23688 36H16.0246C17.1665 36 18.0923 35.3422 18.0923 34.5306C18.0923 32.5018 15.7779 30.8572 12.923 30.8572H10.3384C7.48353 30.8572 5.16919 32.5018 5.16919 34.5306Z" fill="#FFD954"/>
<path d="M20.677 34.5306C20.677 35.3422 21.6027 36 22.7447 36H31.5324C32.6743 36 33.6001 35.3422 33.6001 34.5306C33.6001 32.5018 31.2857 30.8572 28.4308 30.8572H25.8462C22.9913 30.8572 20.677 32.5018 20.677 34.5306Z" fill="#FFD954"/>
<path d="M0 28.9191C-9.80874e-07 30.3234 1.54696 31.2604 2.91512 30.6849L5.24127 29.7064C5.98384 29.394 6.46153 28.7028 6.46153 27.9406L6.46154 18.4387C6.46154 17.3346 5.20667 16.6271 4.16436 17.1437C1.60242 18.4133 5.598e-06 20.9048 3.70239e-06 23.6186L0 28.9191Z" fill="#425466"/>
<path fill-rule="evenodd" clip-rule="evenodd" d="M4.16436 17.1437C1.60242 18.4133 5.598e-06 20.9048 3.70239e-06 23.6186L0 28.9191C-9.80874e-07 30.3234 1.54696 31.2604 2.91512 30.6849L5.24127 29.7064C5.98384 29.394 6.46153 28.7028 6.46153 27.9406L6.46154 18.4387C6.46154 17.3346 5.20667 16.6271 4.16436 17.1437ZM0.516923 28.9191C0.516922 29.9081 1.64167 30.6622 2.71381 30.2112L5.03996 29.2327C5.60429 28.9953 5.94461 28.4824 5.94461 27.9406L5.94462 18.4387C5.94462 17.7665 5.13951 17.235 4.39483 17.604C1.99747 18.792 0.516928 21.1117 0.516927 23.6186L0.516923 28.9191Z" fill="white"/>
<path d="M38.7692 28.9191C38.7692 30.3234 37.2222 31.2604 35.854 30.6849L33.5279 29.7064C32.7853 29.394 32.3076 28.7028 32.3076 27.9406L32.3076 18.4387C32.3076 17.3346 33.5625 16.6271 34.6048 17.1437C37.1667 18.4133 38.7692 20.9048 38.7692 23.6186L38.7692 28.9191Z" fill="#425466"/>
<path fill-rule="evenodd" clip-rule="evenodd" d="M36.0553 30.2112C37.1275 30.6622 38.2522 29.9081 38.2522 28.9191L38.2522 23.6186C38.2522 21.1117 36.7717 18.792 34.3743 17.604C33.6296 17.235 32.8245 17.7665 32.8245 18.4387L32.8245 27.9406C32.8245 28.4824 33.1649 28.9953 33.7292 29.2327L36.0553 30.2112ZM35.854 30.6849C37.2222 31.2604 38.7692 30.3234 38.7692 28.9191L38.7692 23.6186C38.7692 20.9048 37.1667 18.4133 34.6048 17.1437C33.5625 16.6271 32.3076 17.3346 32.3076 18.4387L32.3076 27.9406C32.3076 28.7028 32.7853 29.394 33.5279 29.7064L35.854 30.6849Z" fill="white"/>
<path d="M3.87695 4.11428C3.87695 1.84203 5.72843 0 8.01234 0H30.757C33.0409 0 34.8923 1.84203 34.8923 4.11429V29.3143C34.8923 31.5865 33.0409 33.4286 30.757 33.4286H8.01234C5.72843 33.4286 3.87695 31.5865 3.87695 29.3143V4.11428Z" fill="#0A2540"/>
<path fill-rule="evenodd" clip-rule="evenodd" d="M8.01234 0.514286C6.01392 0.514286 4.39388 2.12606 4.39388 4.11428V29.3143C4.39388 31.3025 6.01392 32.9143 8.01234 32.9143H30.757C32.7554 32.9143 34.3754 31.3025 34.3754 29.3143V4.11429C34.3754 2.12606 32.7554 0.514286 30.757 0.514286H8.01234ZM8.01234 0C5.72843 0 3.87695 1.84203 3.87695 4.11428V29.3143C3.87695 31.5865 5.72843 33.4286 8.01234 33.4286H30.757C33.0409 33.4286 34.8923 31.5865 34.8923 29.3143V4.11429C34.8923 1.84203 33.0409 0 30.757 0H8.01234Z" fill="white"/>
<path fill-rule="evenodd" clip-rule="evenodd" d="M11.1191 4.48775C9.05138 3.29461 6.46143 4.77888 6.46143 7.15699V18.7715H19.3845H32.3076V7.15699C32.3076 4.77888 29.7176 3.29461 27.6499 4.48775L19.3845 8.15153L11.1191 4.48775Z" fill="white"/>
<path d="M6.46143 17.7784C6.46143 16.6227 7.38716 15.6858 8.52912 15.6858H30.2399C31.3818 15.6858 32.3076 16.6227 32.3076 17.7784V28.7646C32.3076 29.9203 31.3818 30.8572 30.2399 30.8572H8.52912C7.38716 30.8572 6.46143 29.9203 6.46143 28.7646V17.7784Z" fill="#9AD7D0"/>
<path d="M6.46143 23.2715C6.46143 19.082 9.85766 15.6858 14.0471 15.6858H19.3845V30.8572H14.0471C9.85767 30.8572 6.46143 27.461 6.46143 23.2715Z" fill="#9AD7D0"/>
<path d="M32.3076 17.7429C32.3076 16.6068 31.3819 15.6858 30.2399 15.6858H19.3845V23.4001L32.3076 17.7429Z" fill="#BAF9F2"/>
<path d="M6.46143 17.7429C6.46143 16.6068 7.38716 15.6858 8.52912 15.6858H19.3845V23.4001L6.46143 17.7429Z" fill="#B0F0E9"/>
<path d="M19.3845 14.1916L23.003 12.5999L19.3845 11.0399L15.766 12.5999L19.3845 14.1916Z" fill="#FFD954"/>
<path d="M19.3847 14.1916L23.0032 12.5999L19.3847 11.0399L19.3847 14.1916Z" fill="#FFEFA3"/>
<ellipse cx="27.1384" cy="9.25721" rx="1.55077" ry="1.54286" fill="#242631"/>
<ellipse cx="11.6308" cy="9.25721" rx="1.55077" ry="1.54286" fill="#242631"/>
<path d="M53.1786 12.9684H47.8462V10.44H61.4991V12.9684H56.1666V26.5293H53.1786V12.9684Z" fill="white"/>
<path d="M75.0569 14.2555V26.5293H72.3218V24.9663C71.8621 25.518 71.2875 25.947 70.5979 26.2535C69.9084 26.5446 69.1652 26.6902 68.3684 26.6902C66.7288 26.6902 65.434 26.2381 64.484 25.3341C63.5493 24.4147 63.0819 23.0586 63.0819 21.2658V14.2555H65.955V20.8751C65.955 21.9783 66.2002 22.8058 66.6905 23.3574C67.1962 23.8937 67.9087 24.1619 68.8281 24.1619C69.8547 24.1619 70.6669 23.8477 71.2645 23.2195C71.8774 22.5759 72.1839 21.6565 72.1839 20.4613V14.2555H75.0569Z" fill="white"/>
<path d="M86.6335 26.5293L83.4846 22.2771L80.3127 26.5293H77.1408L81.9216 20.3004L77.3477 14.2555H80.5425L83.5535 18.2778L86.5645 14.2555H89.6674L85.0705 20.2545L89.8743 26.5293H86.6335Z" fill="white"/>
<path d="M107.049 26.5293L107.026 15.8644L101.74 24.6905H100.407L95.1203 16.0023V26.5293H92.2703V10.44H94.7296L101.119 21.1049L107.394 10.44H109.853L109.876 26.5293H107.049Z" fill="white"/>
<path d="M118.635 14.1176C120.444 14.1176 121.823 14.5543 122.773 15.4277C123.738 16.2858 124.221 17.5883 124.221 19.3351V26.5293H121.508V25.0353C121.156 25.5716 120.65 25.9853 119.992 26.2764C119.348 26.5523 118.566 26.6902 117.647 26.6902C116.728 26.6902 115.923 26.5369 115.234 26.2305C114.544 25.9087 114.008 25.472 113.625 24.9204C113.257 24.3534 113.073 23.7175 113.073 23.0126C113.073 21.9094 113.479 21.0283 114.291 20.3694C115.119 19.6952 116.414 19.3581 118.176 19.3581H121.348V19.1742C121.348 18.3161 121.087 17.6572 120.566 17.1975C120.06 16.7378 119.302 16.508 118.291 16.508C117.601 16.508 116.919 16.6152 116.245 16.8298C115.586 17.0443 115.027 17.3431 114.567 17.7262L113.441 15.6346C114.084 15.1442 114.858 14.7688 115.762 14.5083C116.666 14.2478 117.624 14.1176 118.635 14.1176ZM118.245 24.5986C118.965 24.5986 119.601 24.4377 120.152 24.1159C120.719 23.7788 121.118 23.3038 121.348 22.6908V21.2658H118.383C116.728 21.2658 115.9 21.8098 115.9 22.8977C115.9 23.4187 116.107 23.8324 116.521 24.1389C116.935 24.4453 117.509 24.5986 118.245 24.5986Z" fill="white"/>
<path d="M127.908 14.2555H130.781V26.5293H127.908V14.2555ZM129.356 12.2328C128.835 12.2328 128.398 12.072 128.046 11.7502C127.693 11.4131 127.517 10.9993 127.517 10.509C127.517 10.0187 127.693 9.6126 128.046 9.29082C128.398 8.95371 128.835 8.78516 129.356 8.78516C129.877 8.78516 130.314 8.94605 130.666 9.26783C131.018 9.57429 131.195 9.96503 131.195 10.44C131.195 10.9457 131.018 11.3748 130.666 11.7272C130.329 12.0643 129.892 12.2328 129.356 12.2328Z" fill="white"/>
<path d="M134.552 9.47469H137.425V26.5293H134.552V9.47469Z" fill="white"/>
<path d="M152.734 20.4613C152.734 20.6605 152.719 20.944 152.688 21.3118H143.058C143.226 22.2158 143.663 22.936 144.368 23.4723C145.088 23.9933 145.977 24.2538 147.034 24.2538C148.382 24.2538 149.493 23.8094 150.367 22.9207L151.907 24.6905C151.355 25.3494 150.658 25.8474 149.815 26.1845C148.972 26.5216 148.022 26.6902 146.965 26.6902C145.617 26.6902 144.429 26.422 143.402 25.8857C142.376 25.3494 141.579 24.6062 141.012 23.6562C140.46 22.6908 140.185 21.6029 140.185 20.3924C140.185 19.1972 140.453 18.1246 140.989 17.1745C141.541 16.2092 142.299 15.4584 143.265 14.922C144.23 14.3857 145.318 14.1176 146.528 14.1176C147.724 14.1176 148.788 14.3857 149.723 14.922C150.673 15.443 151.409 16.1862 151.93 17.1516C152.466 18.1016 152.734 19.2048 152.734 20.4613ZM146.528 16.416C145.609 16.416 144.827 16.6919 144.184 17.2435C143.556 17.7798 143.173 18.5 143.035 19.404H149.999C149.876 18.5153 149.501 17.7951 148.873 17.2435C148.245 16.6919 147.463 16.416 146.528 16.416Z" fill="white"/>
<path d="M158.229 16.0483C159.057 14.7612 160.512 14.1176 162.596 14.1176V16.8528C162.351 16.8068 162.129 16.7838 161.93 16.7838C160.811 16.7838 159.938 17.1132 159.309 17.7721C158.681 18.4157 158.367 19.3504 158.367 20.5763V26.5293H155.494V14.2555H158.229V16.0483Z" fill="white"/>
<path d="M141.763 33.39C142.223 33.49 142.576 33.69 142.823 33.99C143.076 34.2833 143.203 34.6633 143.203 35.13C143.203 35.73 142.98 36.1933 142.533 36.52C142.093 36.84 141.44 37 140.573 37H137.353V30H140.373C141.153 30 141.756 30.1567 142.183 30.47C142.616 30.7833 142.833 31.2267 142.833 31.8C142.833 32.1867 142.736 32.5167 142.543 32.79C142.356 33.0567 142.096 33.2567 141.763 33.39ZM138.093 30.61V33.15H140.323C140.89 33.15 141.326 33.0433 141.633 32.83C141.94 32.61 142.093 32.2933 142.093 31.88C142.093 31.4667 141.94 31.1533 141.633 30.94C141.326 30.72 140.89 30.61 140.323 30.61H138.093ZM140.563 36.39C141.19 36.39 141.663 36.2833 141.983 36.07C142.303 35.8567 142.463 35.5233 142.463 35.07C142.463 34.1967 141.83 33.76 140.563 33.76H138.093V36.39H140.563ZM149.842 36.36V37H144.892V30H149.692V30.64H145.632V33.13H149.252V33.76H145.632V36.36H149.842ZM152.941 30.64H150.481V30H156.141V30.64H153.681V37H152.941V30.64ZM161.362 35.13H157.462L156.622 37H155.852L159.052 30H159.782L162.982 37H162.202L161.362 35.13ZM161.092 34.53L159.412 30.77L157.732 34.53H161.092Z" fill="#ECF1F7"/>
</svg>
